<mxfile host="app.diagrams.net" agent="Mozilla/5.0 (Windows NT 10.0; Win64; x64) AppleWebKit/537.36 (KHTML, like Gecko) Chrome/134.0.0.0 Safari/537.36 Edg/134.0.0.0" version="26.1.0" pages="2">
  <diagram name="http" id="XchaJg4QUuztKgwZL8rj">
    <mxGraphModel dx="870" dy="658" grid="0" gridSize="10" guides="1" tooltips="1" connect="1" arrows="1" fold="1" page="1" pageScale="1" pageWidth="827" pageHeight="1169" math="0" shadow="0">
      <root>
        <mxCell id="0" />
        <mxCell id="1" parent="0" />
        <mxCell id="gVpWwuIYfs0jvD3xBLhP-2" value="&lt;font style=&quot;font-size: 16px;&quot;&gt;起始行&lt;/font&gt;" style="rounded=1;whiteSpace=wrap;html=1;fillColor=#d5e8d4;strokeColor=#82b366;" parent="1" vertex="1">
          <mxGeometry x="106" y="332" width="180" height="50" as="geometry" />
        </mxCell>
        <mxCell id="gVpWwuIYfs0jvD3xBLhP-3" value="&lt;font style=&quot;font-size: 16px;&quot;&gt;消息头&lt;/font&gt;" style="rounded=1;whiteSpace=wrap;html=1;fillColor=#ffe6cc;strokeColor=#d79b00;" parent="1" vertex="1">
          <mxGeometry x="106" y="383" width="180" height="50" as="geometry" />
        </mxCell>
        <mxCell id="gVpWwuIYfs0jvD3xBLhP-4" value="&lt;font style=&quot;font-size: 16px;&quot;&gt;空行&lt;/font&gt;" style="rounded=1;whiteSpace=wrap;html=1;fillColor=#f5f5f5;fontColor=#333333;strokeColor=#666666;" parent="1" vertex="1">
          <mxGeometry x="106" y="434" width="180" height="50" as="geometry" />
        </mxCell>
        <mxCell id="gVpWwuIYfs0jvD3xBLhP-5" value="&lt;font style=&quot;font-size: 16px;&quot;&gt;消息主体&lt;/font&gt;" style="rounded=1;whiteSpace=wrap;html=1;fillColor=#f8cecc;strokeColor=#b85450;" parent="1" vertex="1">
          <mxGeometry x="106" y="485" width="180" height="50" as="geometry" />
        </mxCell>
        <mxCell id="gVpWwuIYfs0jvD3xBLhP-7" value="&lt;font style=&quot;font-size: 18px;&quot;&gt;http通用消息格式&lt;/font&gt;" style="text;html=1;align=center;verticalAlign=middle;whiteSpace=wrap;rounded=0;" parent="1" vertex="1">
          <mxGeometry x="100" y="294" width="166" height="30" as="geometry" />
        </mxCell>
        <mxCell id="gVpWwuIYfs0jvD3xBLhP-8" value="&lt;font style=&quot;font-size: 18px;&quot;&gt;http请求消息格式&lt;/font&gt;" style="text;html=1;align=center;verticalAlign=middle;whiteSpace=wrap;rounded=0;" parent="1" vertex="1">
          <mxGeometry x="524" y="309" width="166" height="30" as="geometry" />
        </mxCell>
        <mxCell id="gVpWwuIYfs0jvD3xBLhP-9" value="&lt;font style=&quot;font-size: 18px;&quot;&gt;http响应消息格式&lt;/font&gt;" style="text;html=1;align=center;verticalAlign=middle;whiteSpace=wrap;rounded=0;" parent="1" vertex="1">
          <mxGeometry x="447" y="578" width="166" height="30" as="geometry" />
        </mxCell>
        <mxCell id="gVpWwuIYfs0jvD3xBLhP-10" value="Method" style="rounded=1;whiteSpace=wrap;html=1;fillColor=#d5e8d4;strokeColor=#82b366;" parent="1" vertex="1">
          <mxGeometry x="524" y="347" width="54" height="28" as="geometry" />
        </mxCell>
        <mxCell id="gVpWwuIYfs0jvD3xBLhP-11" value="Space" style="rounded=1;whiteSpace=wrap;html=1;fillColor=#f5f5f5;fontColor=#333333;strokeColor=#666666;" parent="1" vertex="1">
          <mxGeometry x="579" y="347" width="32" height="28" as="geometry" />
        </mxCell>
        <mxCell id="gVpWwuIYfs0jvD3xBLhP-12" value="Req-URI" style="rounded=1;whiteSpace=wrap;html=1;fillColor=#d5e8d4;strokeColor=#82b366;" parent="1" vertex="1">
          <mxGeometry x="612" y="347" width="54" height="28" as="geometry" />
        </mxCell>
        <mxCell id="gVpWwuIYfs0jvD3xBLhP-13" value="Space" style="rounded=1;whiteSpace=wrap;html=1;fillColor=#f5f5f5;fontColor=#333333;strokeColor=#666666;" parent="1" vertex="1">
          <mxGeometry x="667" y="347" width="32" height="28" as="geometry" />
        </mxCell>
        <mxCell id="gVpWwuIYfs0jvD3xBLhP-14" value="HttpVer" style="rounded=1;whiteSpace=wrap;html=1;fillColor=#d5e8d4;strokeColor=#82b366;" parent="1" vertex="1">
          <mxGeometry x="700" y="347" width="54" height="28" as="geometry" />
        </mxCell>
        <mxCell id="gVpWwuIYfs0jvD3xBLhP-15" value="\r\n" style="rounded=1;whiteSpace=wrap;html=1;fillColor=#f5f5f5;fontColor=#333333;strokeColor=#666666;" parent="1" vertex="1">
          <mxGeometry x="758" y="347" width="32" height="28" as="geometry" />
        </mxCell>
        <mxCell id="gVpWwuIYfs0jvD3xBLhP-16" value="name" style="rounded=1;whiteSpace=wrap;html=1;fillColor=#fff2cc;strokeColor=#d6b656;" parent="1" vertex="1">
          <mxGeometry x="525" y="379" width="106" height="28" as="geometry" />
        </mxCell>
        <mxCell id="gVpWwuIYfs0jvD3xBLhP-17" value="&lt;b&gt;:&lt;/b&gt;" style="rounded=1;whiteSpace=wrap;html=1;fillColor=#f5f5f5;fontColor=#333333;strokeColor=#666666;" parent="1" vertex="1">
          <mxGeometry x="633" y="379" width="18" height="28" as="geometry" />
        </mxCell>
        <mxCell id="gVpWwuIYfs0jvD3xBLhP-18" value="value" style="rounded=1;whiteSpace=wrap;html=1;fillColor=#fff2cc;strokeColor=#d6b656;" parent="1" vertex="1">
          <mxGeometry x="653" y="379" width="102" height="28" as="geometry" />
        </mxCell>
        <mxCell id="gVpWwuIYfs0jvD3xBLhP-19" value="\r\n" style="rounded=1;whiteSpace=wrap;html=1;fillColor=#f5f5f5;fontColor=#333333;strokeColor=#666666;" parent="1" vertex="1">
          <mxGeometry x="759" y="379" width="32" height="28" as="geometry" />
        </mxCell>
        <mxCell id="gVpWwuIYfs0jvD3xBLhP-20" value="name" style="rounded=1;whiteSpace=wrap;html=1;fillColor=#fff2cc;strokeColor=#d6b656;" parent="1" vertex="1">
          <mxGeometry x="525" y="410" width="106" height="28" as="geometry" />
        </mxCell>
        <mxCell id="gVpWwuIYfs0jvD3xBLhP-21" value="&lt;b&gt;:&lt;/b&gt;" style="rounded=1;whiteSpace=wrap;html=1;fillColor=#f5f5f5;fontColor=#333333;strokeColor=#666666;" parent="1" vertex="1">
          <mxGeometry x="633" y="410" width="18" height="28" as="geometry" />
        </mxCell>
        <mxCell id="gVpWwuIYfs0jvD3xBLhP-22" value="value" style="rounded=1;whiteSpace=wrap;html=1;fillColor=#fff2cc;strokeColor=#d6b656;" parent="1" vertex="1">
          <mxGeometry x="653" y="410" width="102" height="28" as="geometry" />
        </mxCell>
        <mxCell id="gVpWwuIYfs0jvD3xBLhP-23" value="\r\n" style="rounded=1;whiteSpace=wrap;html=1;fillColor=#f5f5f5;fontColor=#333333;strokeColor=#666666;" parent="1" vertex="1">
          <mxGeometry x="758" y="410" width="32" height="28" as="geometry" />
        </mxCell>
        <mxCell id="gVpWwuIYfs0jvD3xBLhP-24" value="\r\n" style="rounded=1;whiteSpace=wrap;html=1;fillColor=#f5f5f5;strokeColor=#666666;fontColor=#333333;" parent="1" vertex="1">
          <mxGeometry x="524" y="457" width="267" height="28" as="geometry" />
        </mxCell>
        <mxCell id="gVpWwuIYfs0jvD3xBLhP-27" value="body(可选)" style="rounded=1;whiteSpace=wrap;html=1;fillColor=#f8cecc;strokeColor=#b85450;" parent="1" vertex="1">
          <mxGeometry x="524" y="487" width="267" height="28" as="geometry" />
        </mxCell>
        <mxCell id="gVpWwuIYfs0jvD3xBLhP-28" value="" style="endArrow=none;dashed=1;html=1;dashPattern=1 3;strokeWidth=2;rounded=0;" parent="1" edge="1">
          <mxGeometry width="50" height="50" relative="1" as="geometry">
            <mxPoint x="631" y="449" as="sourcePoint" />
            <mxPoint x="649" y="449" as="targetPoint" />
          </mxGeometry>
        </mxCell>
        <mxCell id="gVpWwuIYfs0jvD3xBLhP-29" value="" style="shape=curlyBracket;whiteSpace=wrap;html=1;rounded=1;labelPosition=left;verticalLabelPosition=middle;align=right;verticalAlign=middle;fillColor=#f5f5f5;fontColor=#333333;strokeColor=#666666;" parent="1" vertex="1">
          <mxGeometry x="496" y="348" width="20" height="30" as="geometry" />
        </mxCell>
        <mxCell id="gVpWwuIYfs0jvD3xBLhP-30" value="" style="shape=curlyBracket;whiteSpace=wrap;html=1;rounded=1;labelPosition=left;verticalLabelPosition=middle;align=right;verticalAlign=middle;fillColor=#f5f5f5;fontColor=#333333;strokeColor=#666666;" parent="1" vertex="1">
          <mxGeometry x="496" y="380" width="20" height="76" as="geometry" />
        </mxCell>
        <mxCell id="gVpWwuIYfs0jvD3xBLhP-31" value="" style="shape=curlyBracket;whiteSpace=wrap;html=1;rounded=1;labelPosition=left;verticalLabelPosition=middle;align=right;verticalAlign=middle;fillColor=#f5f5f5;fontColor=#333333;strokeColor=#666666;" parent="1" vertex="1">
          <mxGeometry x="497" y="458" width="20" height="30" as="geometry" />
        </mxCell>
        <mxCell id="gVpWwuIYfs0jvD3xBLhP-32" value="" style="shape=curlyBracket;whiteSpace=wrap;html=1;rounded=1;labelPosition=left;verticalLabelPosition=middle;align=right;verticalAlign=middle;fillColor=#f5f5f5;fontColor=#333333;strokeColor=#666666;" parent="1" vertex="1">
          <mxGeometry x="498" y="490" width="20" height="26" as="geometry" />
        </mxCell>
        <mxCell id="gVpWwuIYfs0jvD3xBLhP-33" value="请求行" style="text;html=1;align=center;verticalAlign=middle;whiteSpace=wrap;rounded=0;" parent="1" vertex="1">
          <mxGeometry x="446" y="348" width="60" height="30" as="geometry" />
        </mxCell>
        <mxCell id="gVpWwuIYfs0jvD3xBLhP-34" value="请求头" style="text;html=1;align=center;verticalAlign=middle;whiteSpace=wrap;rounded=0;" parent="1" vertex="1">
          <mxGeometry x="446" y="403" width="60" height="30" as="geometry" />
        </mxCell>
        <mxCell id="gVpWwuIYfs0jvD3xBLhP-35" value="空行" style="text;html=1;align=center;verticalAlign=middle;whiteSpace=wrap;rounded=0;" parent="1" vertex="1">
          <mxGeometry x="451" y="457" width="60" height="30" as="geometry" />
        </mxCell>
        <mxCell id="gVpWwuIYfs0jvD3xBLhP-36" value="消息体" style="text;html=1;align=center;verticalAlign=middle;whiteSpace=wrap;rounded=0;" parent="1" vertex="1">
          <mxGeometry x="446" y="490" width="60" height="30" as="geometry" />
        </mxCell>
        <mxCell id="gVpWwuIYfs0jvD3xBLhP-62" value="HttpVer" style="rounded=1;whiteSpace=wrap;html=1;fillColor=#d5e8d4;strokeColor=#82b366;" parent="1" vertex="1">
          <mxGeometry x="439" y="618" width="54" height="28" as="geometry" />
        </mxCell>
        <mxCell id="gVpWwuIYfs0jvD3xBLhP-63" value="Space" style="rounded=1;whiteSpace=wrap;html=1;fillColor=#f5f5f5;fontColor=#333333;strokeColor=#666666;" parent="1" vertex="1">
          <mxGeometry x="494" y="618" width="32" height="28" as="geometry" />
        </mxCell>
        <mxCell id="gVpWwuIYfs0jvD3xBLhP-64" value="Status Code" style="rounded=1;whiteSpace=wrap;html=1;fillColor=#d5e8d4;strokeColor=#82b366;" parent="1" vertex="1">
          <mxGeometry x="527" y="618" width="54" height="28" as="geometry" />
        </mxCell>
        <mxCell id="gVpWwuIYfs0jvD3xBLhP-65" value="Space" style="rounded=1;whiteSpace=wrap;html=1;fillColor=#f5f5f5;fontColor=#333333;strokeColor=#666666;" parent="1" vertex="1">
          <mxGeometry x="582" y="618" width="32" height="28" as="geometry" />
        </mxCell>
        <mxCell id="gVpWwuIYfs0jvD3xBLhP-66" value="Reason" style="rounded=1;whiteSpace=wrap;html=1;fillColor=#d5e8d4;strokeColor=#82b366;" parent="1" vertex="1">
          <mxGeometry x="615" y="618" width="54" height="28" as="geometry" />
        </mxCell>
        <mxCell id="gVpWwuIYfs0jvD3xBLhP-67" value="\r\n" style="rounded=1;whiteSpace=wrap;html=1;fillColor=#f5f5f5;fontColor=#333333;strokeColor=#666666;" parent="1" vertex="1">
          <mxGeometry x="673" y="618" width="32" height="28" as="geometry" />
        </mxCell>
        <mxCell id="gVpWwuIYfs0jvD3xBLhP-68" value="name" style="rounded=1;whiteSpace=wrap;html=1;fillColor=#fff2cc;strokeColor=#d6b656;" parent="1" vertex="1">
          <mxGeometry x="440" y="650" width="106" height="28" as="geometry" />
        </mxCell>
        <mxCell id="gVpWwuIYfs0jvD3xBLhP-69" value="&lt;b&gt;:&lt;/b&gt;" style="rounded=1;whiteSpace=wrap;html=1;fillColor=#f5f5f5;fontColor=#333333;strokeColor=#666666;" parent="1" vertex="1">
          <mxGeometry x="548" y="650" width="18" height="28" as="geometry" />
        </mxCell>
        <mxCell id="gVpWwuIYfs0jvD3xBLhP-70" value="value" style="rounded=1;whiteSpace=wrap;html=1;fillColor=#fff2cc;strokeColor=#d6b656;" parent="1" vertex="1">
          <mxGeometry x="568" y="650" width="102" height="28" as="geometry" />
        </mxCell>
        <mxCell id="gVpWwuIYfs0jvD3xBLhP-71" value="\r\n" style="rounded=1;whiteSpace=wrap;html=1;fillColor=#f5f5f5;fontColor=#333333;strokeColor=#666666;" parent="1" vertex="1">
          <mxGeometry x="674" y="650" width="32" height="28" as="geometry" />
        </mxCell>
        <mxCell id="gVpWwuIYfs0jvD3xBLhP-72" value="name" style="rounded=1;whiteSpace=wrap;html=1;fillColor=#fff2cc;strokeColor=#d6b656;" parent="1" vertex="1">
          <mxGeometry x="440" y="681" width="106" height="28" as="geometry" />
        </mxCell>
        <mxCell id="gVpWwuIYfs0jvD3xBLhP-73" value="&lt;b&gt;:&lt;/b&gt;" style="rounded=1;whiteSpace=wrap;html=1;fillColor=#f5f5f5;fontColor=#333333;strokeColor=#666666;" parent="1" vertex="1">
          <mxGeometry x="548" y="681" width="18" height="28" as="geometry" />
        </mxCell>
        <mxCell id="gVpWwuIYfs0jvD3xBLhP-74" value="value" style="rounded=1;whiteSpace=wrap;html=1;fillColor=#fff2cc;strokeColor=#d6b656;" parent="1" vertex="1">
          <mxGeometry x="568" y="681" width="102" height="28" as="geometry" />
        </mxCell>
        <mxCell id="gVpWwuIYfs0jvD3xBLhP-75" value="\r\n" style="rounded=1;whiteSpace=wrap;html=1;fillColor=#f5f5f5;fontColor=#333333;strokeColor=#666666;" parent="1" vertex="1">
          <mxGeometry x="673" y="681" width="32" height="28" as="geometry" />
        </mxCell>
        <mxCell id="gVpWwuIYfs0jvD3xBLhP-76" value="\r\n" style="rounded=1;whiteSpace=wrap;html=1;fillColor=#f5f5f5;strokeColor=#666666;fontColor=#333333;" parent="1" vertex="1">
          <mxGeometry x="439" y="728" width="267" height="28" as="geometry" />
        </mxCell>
        <mxCell id="gVpWwuIYfs0jvD3xBLhP-77" value="body(可选)" style="rounded=1;whiteSpace=wrap;html=1;fillColor=#f8cecc;strokeColor=#b85450;" parent="1" vertex="1">
          <mxGeometry x="439" y="758" width="267" height="28" as="geometry" />
        </mxCell>
        <mxCell id="gVpWwuIYfs0jvD3xBLhP-78" value="" style="endArrow=none;dashed=1;html=1;dashPattern=1 3;strokeWidth=2;rounded=0;" parent="1" edge="1">
          <mxGeometry width="50" height="50" relative="1" as="geometry">
            <mxPoint x="546" y="720" as="sourcePoint" />
            <mxPoint x="564" y="720" as="targetPoint" />
          </mxGeometry>
        </mxCell>
        <mxCell id="gVpWwuIYfs0jvD3xBLhP-79" value="" style="shape=curlyBracket;whiteSpace=wrap;html=1;rounded=1;labelPosition=left;verticalLabelPosition=middle;align=right;verticalAlign=middle;fillColor=#f5f5f5;fontColor=#333333;strokeColor=#666666;" parent="1" vertex="1">
          <mxGeometry x="411" y="619" width="20" height="30" as="geometry" />
        </mxCell>
        <mxCell id="gVpWwuIYfs0jvD3xBLhP-80" value="" style="shape=curlyBracket;whiteSpace=wrap;html=1;rounded=1;labelPosition=left;verticalLabelPosition=middle;align=right;verticalAlign=middle;fillColor=#f5f5f5;fontColor=#333333;strokeColor=#666666;" parent="1" vertex="1">
          <mxGeometry x="411" y="651" width="20" height="76" as="geometry" />
        </mxCell>
        <mxCell id="gVpWwuIYfs0jvD3xBLhP-81" value="" style="shape=curlyBracket;whiteSpace=wrap;html=1;rounded=1;labelPosition=left;verticalLabelPosition=middle;align=right;verticalAlign=middle;fillColor=#f5f5f5;fontColor=#333333;strokeColor=#666666;" parent="1" vertex="1">
          <mxGeometry x="412" y="729" width="20" height="30" as="geometry" />
        </mxCell>
        <mxCell id="gVpWwuIYfs0jvD3xBLhP-82" value="" style="shape=curlyBracket;whiteSpace=wrap;html=1;rounded=1;labelPosition=left;verticalLabelPosition=middle;align=right;verticalAlign=middle;fillColor=#f5f5f5;fontColor=#333333;strokeColor=#666666;" parent="1" vertex="1">
          <mxGeometry x="413" y="761" width="20" height="26" as="geometry" />
        </mxCell>
        <mxCell id="gVpWwuIYfs0jvD3xBLhP-83" value="响应行" style="text;html=1;align=center;verticalAlign=middle;whiteSpace=wrap;rounded=0;" parent="1" vertex="1">
          <mxGeometry x="361" y="619" width="60" height="30" as="geometry" />
        </mxCell>
        <mxCell id="gVpWwuIYfs0jvD3xBLhP-84" value="响应头" style="text;html=1;align=center;verticalAlign=middle;whiteSpace=wrap;rounded=0;" parent="1" vertex="1">
          <mxGeometry x="361" y="674" width="60" height="30" as="geometry" />
        </mxCell>
        <mxCell id="gVpWwuIYfs0jvD3xBLhP-85" value="空行" style="text;html=1;align=center;verticalAlign=middle;whiteSpace=wrap;rounded=0;" parent="1" vertex="1">
          <mxGeometry x="366" y="728" width="60" height="30" as="geometry" />
        </mxCell>
        <mxCell id="gVpWwuIYfs0jvD3xBLhP-86" value="消息体" style="text;html=1;align=center;verticalAlign=middle;whiteSpace=wrap;rounded=0;" parent="1" vertex="1">
          <mxGeometry x="361" y="761" width="60" height="30" as="geometry" />
        </mxCell>
      </root>
    </mxGraphModel>
  </diagram>
  <diagram id="llSpfQn0sw5DJQ5hTPEd" name="https">
    <mxGraphModel dx="870" dy="658" grid="0" gridSize="10" guides="1" tooltips="1" connect="1" arrows="1" fold="1" page="1" pageScale="1" pageWidth="827" pageHeight="1169" math="0" shadow="0">
      <root>
        <mxCell id="0" />
        <mxCell id="1" parent="0" />
        <mxCell id="8Fj_e8VSMX3BYQ6a5OL4-75" value="" style="verticalLabelPosition=bottom;verticalAlign=top;html=1;shape=mxgraph.basic.rect;fillColor2=none;strokeWidth=1;size=20;indent=5;fillColor=#fff2cc;strokeColor=#d6b656;" vertex="1" parent="1">
          <mxGeometry x="100" y="619" width="570" height="161" as="geometry" />
        </mxCell>
        <mxCell id="8Fj_e8VSMX3BYQ6a5OL4-66" value="" style="verticalLabelPosition=bottom;verticalAlign=top;html=1;shape=mxgraph.basic.rect;fillColor2=none;strokeWidth=1;size=20;indent=5;dashed=1;fillColor=#d5e8d4;strokeColor=#82b366;shadow=0;gradientColor=none;" vertex="1" parent="1">
          <mxGeometry x="908" y="287" width="356" height="371" as="geometry" />
        </mxCell>
        <mxCell id="8Fj_e8VSMX3BYQ6a5OL4-65" value="" style="verticalLabelPosition=bottom;verticalAlign=top;html=1;shape=mxgraph.basic.rect;fillColor2=none;strokeWidth=1;size=20;indent=5;dashed=1;fillColor=#f8cecc;strokeColor=#b85450;" vertex="1" parent="1">
          <mxGeometry x="908" y="673" width="357" height="116" as="geometry" />
        </mxCell>
        <mxCell id="8Fj_e8VSMX3BYQ6a5OL4-1" value="HTTP客户端" style="rounded=0;whiteSpace=wrap;html=1;shadow=1;glass=0;labelBackgroundColor=none;labelBorderColor=none;textShadow=0;" vertex="1" parent="1">
          <mxGeometry x="170" y="180" width="120" height="60" as="geometry" />
        </mxCell>
        <mxCell id="8Fj_e8VSMX3BYQ6a5OL4-2" value="SSL/TLS" style="rounded=0;whiteSpace=wrap;html=1;shadow=1;" vertex="1" parent="1">
          <mxGeometry x="170" y="260" width="120" height="60" as="geometry" />
        </mxCell>
        <mxCell id="8Fj_e8VSMX3BYQ6a5OL4-3" value="TCP" style="rounded=0;whiteSpace=wrap;html=1;shadow=1;glass=0;" vertex="1" parent="1">
          <mxGeometry x="170" y="340" width="120" height="60" as="geometry" />
        </mxCell>
        <mxCell id="8Fj_e8VSMX3BYQ6a5OL4-4" value="IP" style="rounded=0;whiteSpace=wrap;html=1;shadow=1;" vertex="1" parent="1">
          <mxGeometry x="170" y="420" width="120" height="60" as="geometry" />
        </mxCell>
        <mxCell id="8Fj_e8VSMX3BYQ6a5OL4-5" value="网络" style="rounded=0;whiteSpace=wrap;html=1;shadow=1;" vertex="1" parent="1">
          <mxGeometry x="170" y="500" width="120" height="60" as="geometry" />
        </mxCell>
        <mxCell id="8Fj_e8VSMX3BYQ6a5OL4-6" value="HTTP服务器" style="rounded=0;whiteSpace=wrap;html=1;shadow=1;" vertex="1" parent="1">
          <mxGeometry x="450" y="180" width="120" height="60" as="geometry" />
        </mxCell>
        <mxCell id="8Fj_e8VSMX3BYQ6a5OL4-7" value="SSL/TLS" style="rounded=0;whiteSpace=wrap;html=1;shadow=1;" vertex="1" parent="1">
          <mxGeometry x="450" y="260" width="120" height="60" as="geometry" />
        </mxCell>
        <mxCell id="8Fj_e8VSMX3BYQ6a5OL4-8" value="TCP" style="rounded=0;whiteSpace=wrap;html=1;shadow=1;" vertex="1" parent="1">
          <mxGeometry x="450" y="340" width="120" height="60" as="geometry" />
        </mxCell>
        <mxCell id="8Fj_e8VSMX3BYQ6a5OL4-9" value="IP" style="rounded=0;whiteSpace=wrap;html=1;shadow=1;" vertex="1" parent="1">
          <mxGeometry x="450" y="420" width="120" height="60" as="geometry" />
        </mxCell>
        <mxCell id="8Fj_e8VSMX3BYQ6a5OL4-10" value="网络" style="rounded=0;whiteSpace=wrap;html=1;shadow=1;" vertex="1" parent="1">
          <mxGeometry x="450" y="500" width="120" height="60" as="geometry" />
        </mxCell>
        <mxCell id="8Fj_e8VSMX3BYQ6a5OL4-12" value="" style="shape=doubleArrow;direction=south;whiteSpace=wrap;html=1;" vertex="1" parent="1">
          <mxGeometry x="220" y="240" width="20" height="20" as="geometry" />
        </mxCell>
        <mxCell id="8Fj_e8VSMX3BYQ6a5OL4-15" value="" style="shape=doubleArrow;direction=south;whiteSpace=wrap;html=1;" vertex="1" parent="1">
          <mxGeometry x="220" y="320" width="20" height="20" as="geometry" />
        </mxCell>
        <mxCell id="8Fj_e8VSMX3BYQ6a5OL4-16" value="" style="shape=doubleArrow;direction=south;whiteSpace=wrap;html=1;" vertex="1" parent="1">
          <mxGeometry x="220" y="400" width="20" height="20" as="geometry" />
        </mxCell>
        <mxCell id="8Fj_e8VSMX3BYQ6a5OL4-17" value="" style="shape=doubleArrow;direction=south;whiteSpace=wrap;html=1;" vertex="1" parent="1">
          <mxGeometry x="220" y="480" width="20" height="20" as="geometry" />
        </mxCell>
        <mxCell id="8Fj_e8VSMX3BYQ6a5OL4-18" value="" style="shape=doubleArrow;direction=south;whiteSpace=wrap;html=1;" vertex="1" parent="1">
          <mxGeometry x="500" y="240" width="20" height="20" as="geometry" />
        </mxCell>
        <mxCell id="8Fj_e8VSMX3BYQ6a5OL4-19" value="" style="shape=doubleArrow;direction=south;whiteSpace=wrap;html=1;" vertex="1" parent="1">
          <mxGeometry x="500" y="320" width="20" height="20" as="geometry" />
        </mxCell>
        <mxCell id="8Fj_e8VSMX3BYQ6a5OL4-20" value="" style="shape=doubleArrow;direction=south;whiteSpace=wrap;html=1;" vertex="1" parent="1">
          <mxGeometry x="500" y="400" width="20" height="20" as="geometry" />
        </mxCell>
        <mxCell id="8Fj_e8VSMX3BYQ6a5OL4-21" value="" style="shape=doubleArrow;direction=south;whiteSpace=wrap;html=1;" vertex="1" parent="1">
          <mxGeometry x="500" y="480" width="20" height="20" as="geometry" />
        </mxCell>
        <mxCell id="8Fj_e8VSMX3BYQ6a5OL4-29" value="" style="swimlane;startSize=0;fillColor=#d5e8d4;strokeColor=#82b366;shadow=1;" vertex="1" parent="1">
          <mxGeometry x="133" y="170" width="190" height="400" as="geometry" />
        </mxCell>
        <mxCell id="8Fj_e8VSMX3BYQ6a5OL4-30" value="" style="shape=flexArrow;endArrow=classic;startArrow=classic;html=1;rounded=0;width=5;" edge="1" parent="1">
          <mxGeometry width="100" height="100" relative="1" as="geometry">
            <mxPoint x="290" y="529.5" as="sourcePoint" />
            <mxPoint x="450" y="529.5" as="targetPoint" />
          </mxGeometry>
        </mxCell>
        <mxCell id="8Fj_e8VSMX3BYQ6a5OL4-31" value="" style="swimlane;startSize=0;fillColor=#d5e8d4;strokeColor=#82b366;shadow=1;" vertex="1" parent="1">
          <mxGeometry x="414" y="170" width="190" height="400" as="geometry">
            <mxRectangle x="414" y="170" width="50" height="40" as="alternateBounds" />
          </mxGeometry>
        </mxCell>
        <mxCell id="8Fj_e8VSMX3BYQ6a5OL4-32" value="客户端" style="text;html=1;align=center;verticalAlign=middle;whiteSpace=wrap;rounded=0;fontSize=14;" vertex="1" parent="1">
          <mxGeometry x="190" y="128" width="60" height="30" as="geometry" />
        </mxCell>
        <mxCell id="8Fj_e8VSMX3BYQ6a5OL4-33" value="服务器" style="text;html=1;align=center;verticalAlign=middle;resizable=0;points=[];autosize=1;strokeColor=none;fillColor=none;fontSize=14;" vertex="1" parent="1">
          <mxGeometry x="465" y="128" width="70" height="30" as="geometry" />
        </mxCell>
        <mxCell id="8Fj_e8VSMX3BYQ6a5OL4-34" value="应用层" style="text;html=1;align=center;verticalAlign=middle;whiteSpace=wrap;rounded=0;fontSize=14;" vertex="1" parent="1">
          <mxGeometry x="40" y="200" width="60" height="30" as="geometry" />
        </mxCell>
        <mxCell id="8Fj_e8VSMX3BYQ6a5OL4-35" value="会话层" style="text;html=1;align=center;verticalAlign=middle;whiteSpace=wrap;rounded=0;fontSize=14;" vertex="1" parent="1">
          <mxGeometry x="40" y="280" width="60" height="30" as="geometry" />
        </mxCell>
        <mxCell id="8Fj_e8VSMX3BYQ6a5OL4-36" value="传输层" style="text;html=1;align=center;verticalAlign=middle;whiteSpace=wrap;rounded=0;fontSize=14;" vertex="1" parent="1">
          <mxGeometry x="40" y="360" width="60" height="30" as="geometry" />
        </mxCell>
        <mxCell id="8Fj_e8VSMX3BYQ6a5OL4-37" value="网络层" style="text;html=1;align=center;verticalAlign=middle;whiteSpace=wrap;rounded=0;fontSize=14;" vertex="1" parent="1">
          <mxGeometry x="40" y="440" width="60" height="30" as="geometry" />
        </mxCell>
        <mxCell id="8Fj_e8VSMX3BYQ6a5OL4-38" value="链路层" style="text;html=1;align=center;verticalAlign=middle;whiteSpace=wrap;rounded=0;fontSize=14;" vertex="1" parent="1">
          <mxGeometry x="40" y="520" width="60" height="30" as="geometry" />
        </mxCell>
        <mxCell id="8Fj_e8VSMX3BYQ6a5OL4-39" value="" style="shape=umlLifeline;perimeter=lifelinePerimeter;whiteSpace=wrap;html=1;container=1;dropTarget=0;collapsible=0;recursiveResize=0;outlineConnect=0;portConstraint=eastwest;newEdgeStyle={&quot;curved&quot;:0,&quot;rounded&quot;:0};participant=umlEntity;" vertex="1" parent="1">
          <mxGeometry x="906" y="237" width="40" height="600" as="geometry" />
        </mxCell>
        <mxCell id="8Fj_e8VSMX3BYQ6a5OL4-40" value="" style="shape=umlLifeline;perimeter=lifelinePerimeter;whiteSpace=wrap;html=1;container=1;dropTarget=0;collapsible=0;recursiveResize=0;outlineConnect=0;portConstraint=eastwest;newEdgeStyle={&quot;curved&quot;:0,&quot;rounded&quot;:0};participant=umlEntity;" vertex="1" parent="1">
          <mxGeometry x="1221" y="234" width="40" height="600" as="geometry" />
        </mxCell>
        <mxCell id="8Fj_e8VSMX3BYQ6a5OL4-41" value="客户端" style="text;html=1;align=center;verticalAlign=middle;resizable=0;points=[];autosize=1;strokeColor=none;fillColor=none;" vertex="1" parent="1">
          <mxGeometry x="892" y="192" width="54" height="26" as="geometry" />
        </mxCell>
        <mxCell id="8Fj_e8VSMX3BYQ6a5OL4-42" value="服务器" style="text;html=1;align=center;verticalAlign=middle;resizable=0;points=[];autosize=1;strokeColor=none;fillColor=none;" vertex="1" parent="1">
          <mxGeometry x="1207" y="197" width="54" height="26" as="geometry" />
        </mxCell>
        <mxCell id="8Fj_e8VSMX3BYQ6a5OL4-45" value="" style="endArrow=classic;html=1;rounded=0;" edge="1" parent="1" target="8Fj_e8VSMX3BYQ6a5OL4-40">
          <mxGeometry width="50" height="50" relative="1" as="geometry">
            <mxPoint x="927" y="315" as="sourcePoint" />
            <mxPoint x="977" y="265" as="targetPoint" />
          </mxGeometry>
        </mxCell>
        <mxCell id="8Fj_e8VSMX3BYQ6a5OL4-46" value="Client Hello" style="text;html=1;align=center;verticalAlign=middle;resizable=0;points=[];autosize=1;strokeColor=none;fillColor=none;" vertex="1" parent="1">
          <mxGeometry x="1012" y="287" width="79" height="26" as="geometry" />
        </mxCell>
        <mxCell id="8Fj_e8VSMX3BYQ6a5OL4-47" value="" style="endArrow=classic;html=1;rounded=0;dashed=1;" edge="1" parent="1" source="8Fj_e8VSMX3BYQ6a5OL4-40" target="8Fj_e8VSMX3BYQ6a5OL4-39">
          <mxGeometry width="50" height="50" relative="1" as="geometry">
            <mxPoint x="1091" y="441" as="sourcePoint" />
            <mxPoint x="1141" y="391" as="targetPoint" />
            <Array as="points">
              <mxPoint x="1095" y="368" />
            </Array>
          </mxGeometry>
        </mxCell>
        <mxCell id="8Fj_e8VSMX3BYQ6a5OL4-48" value="Server Hello" style="text;html=1;align=center;verticalAlign=middle;resizable=0;points=[];autosize=1;strokeColor=none;fillColor=none;" vertex="1" parent="1">
          <mxGeometry x="1016" y="340" width="84" height="26" as="geometry" />
        </mxCell>
        <mxCell id="8Fj_e8VSMX3BYQ6a5OL4-49" value="" style="endArrow=classic;html=1;rounded=0;dashed=1;" edge="1" parent="1">
          <mxGeometry width="50" height="50" relative="1" as="geometry">
            <mxPoint x="1241" y="445" as="sourcePoint" />
            <mxPoint x="926" y="445" as="targetPoint" />
            <Array as="points">
              <mxPoint x="1095" y="445" />
            </Array>
          </mxGeometry>
        </mxCell>
        <mxCell id="8Fj_e8VSMX3BYQ6a5OL4-50" value="&lt;span&gt;Certificate,&lt;/span&gt;&lt;div&gt;Server Key Exchange,&lt;/div&gt;&lt;div&gt;Server Hello Done&lt;/div&gt;" style="text;html=1;align=center;verticalAlign=middle;resizable=0;points=[];autosize=1;strokeColor=none;fillColor=none;" vertex="1" parent="1">
          <mxGeometry x="1005" y="390" width="137" height="55" as="geometry" />
        </mxCell>
        <mxCell id="8Fj_e8VSMX3BYQ6a5OL4-51" value="" style="endArrow=classic;html=1;rounded=0;" edge="1" parent="1">
          <mxGeometry width="50" height="50" relative="1" as="geometry">
            <mxPoint x="927" y="503" as="sourcePoint" />
            <mxPoint x="1241" y="503" as="targetPoint" />
          </mxGeometry>
        </mxCell>
        <mxCell id="8Fj_e8VSMX3BYQ6a5OL4-52" value="Client Key Exchange" style="text;html=1;align=center;verticalAlign=middle;resizable=0;points=[];autosize=1;strokeColor=none;fillColor=none;" vertex="1" parent="1">
          <mxGeometry x="1003" y="474" width="129" height="26" as="geometry" />
        </mxCell>
        <mxCell id="8Fj_e8VSMX3BYQ6a5OL4-53" value="" style="endArrow=classic;html=1;rounded=0;" edge="1" parent="1">
          <mxGeometry width="50" height="50" relative="1" as="geometry">
            <mxPoint x="927" y="550" as="sourcePoint" />
            <mxPoint x="1241" y="550" as="targetPoint" />
          </mxGeometry>
        </mxCell>
        <mxCell id="8Fj_e8VSMX3BYQ6a5OL4-54" value="Change Cipher Spc,&lt;div&gt;Encrypted Handshake Message&lt;/div&gt;" style="text;html=1;align=center;verticalAlign=middle;resizable=0;points=[];autosize=1;strokeColor=none;fillColor=none;" vertex="1" parent="1">
          <mxGeometry x="967" y="510" width="188" height="41" as="geometry" />
        </mxCell>
        <mxCell id="8Fj_e8VSMX3BYQ6a5OL4-55" value="" style="endArrow=classic;html=1;rounded=0;dashed=1;" edge="1" parent="1">
          <mxGeometry width="50" height="50" relative="1" as="geometry">
            <mxPoint x="1241" y="635" as="sourcePoint" />
            <mxPoint x="926" y="635" as="targetPoint" />
            <Array as="points">
              <mxPoint x="1095" y="635" />
            </Array>
          </mxGeometry>
        </mxCell>
        <mxCell id="8Fj_e8VSMX3BYQ6a5OL4-58" value="握手流程" style="text;html=1;align=center;verticalAlign=middle;resizable=0;points=[];autosize=1;strokeColor=#82b366;fillColor=#d5e8d4;" vertex="1" parent="1">
          <mxGeometry x="1264" y="467" width="66" height="26" as="geometry" />
        </mxCell>
        <mxCell id="8Fj_e8VSMX3BYQ6a5OL4-59" value="" style="endArrow=classic;html=1;rounded=0;" edge="1" parent="1">
          <mxGeometry width="50" height="50" relative="1" as="geometry">
            <mxPoint x="927" y="707" as="sourcePoint" />
            <mxPoint x="1241" y="707" as="targetPoint" />
          </mxGeometry>
        </mxCell>
        <mxCell id="8Fj_e8VSMX3BYQ6a5OL4-60" value="" style="endArrow=classic;html=1;rounded=0;dashed=1;" edge="1" parent="1">
          <mxGeometry width="50" height="50" relative="1" as="geometry">
            <mxPoint x="1241" y="756" as="sourcePoint" />
            <mxPoint x="926" y="756" as="targetPoint" />
            <Array as="points">
              <mxPoint x="1095" y="756" />
            </Array>
          </mxGeometry>
        </mxCell>
        <mxCell id="8Fj_e8VSMX3BYQ6a5OL4-61" value="Application Data" style="text;html=1;align=center;verticalAlign=middle;resizable=0;points=[];autosize=1;strokeColor=none;fillColor=none;" vertex="1" parent="1">
          <mxGeometry x="1016" y="681" width="105" height="26" as="geometry" />
        </mxCell>
        <mxCell id="8Fj_e8VSMX3BYQ6a5OL4-62" value="Application Data" style="text;html=1;align=center;verticalAlign=middle;resizable=0;points=[];autosize=1;strokeColor=none;fillColor=none;" vertex="1" parent="1">
          <mxGeometry x="1014" y="730" width="105" height="26" as="geometry" />
        </mxCell>
        <mxCell id="8Fj_e8VSMX3BYQ6a5OL4-64" value="数据传输" style="text;html=1;align=center;verticalAlign=middle;resizable=0;points=[];autosize=1;strokeColor=#b85450;fillColor=#f8cecc;" vertex="1" parent="1">
          <mxGeometry x="1265" y="716" width="66" height="26" as="geometry" />
        </mxCell>
        <mxCell id="8Fj_e8VSMX3BYQ6a5OL4-68" value="New Session Ticket,&lt;div&gt;Change Cipher Spec,&lt;/div&gt;&lt;div&gt;Encrypted Handshake Message&lt;/div&gt;" style="text;html=1;align=center;verticalAlign=middle;resizable=0;points=[];autosize=1;strokeColor=none;fillColor=none;" vertex="1" parent="1">
          <mxGeometry x="990" y="581" width="188" height="55" as="geometry" />
        </mxCell>
        <mxCell id="8Fj_e8VSMX3BYQ6a5OL4-70" value="HandShake" style="rounded=0;whiteSpace=wrap;html=1;fillColor=#ffe6cc;strokeColor=#d79b00;" vertex="1" parent="1">
          <mxGeometry x="114" y="634" width="120" height="60" as="geometry" />
        </mxCell>
        <mxCell id="8Fj_e8VSMX3BYQ6a5OL4-71" value="Change Cipher Spec" style="rounded=0;whiteSpace=wrap;html=1;fillColor=#ffe6cc;strokeColor=#d79b00;" vertex="1" parent="1">
          <mxGeometry x="254" y="634" width="120" height="60" as="geometry" />
        </mxCell>
        <mxCell id="8Fj_e8VSMX3BYQ6a5OL4-72" value="Application Data" style="rounded=0;whiteSpace=wrap;html=1;fillColor=#ffe6cc;strokeColor=#d79b00;" vertex="1" parent="1">
          <mxGeometry x="393" y="634" width="120" height="60" as="geometry" />
        </mxCell>
        <mxCell id="8Fj_e8VSMX3BYQ6a5OL4-73" value="Alert" style="rounded=0;whiteSpace=wrap;html=1;fillColor=#ffe6cc;strokeColor=#d79b00;" vertex="1" parent="1">
          <mxGeometry x="533" y="634" width="120" height="60" as="geometry" />
        </mxCell>
        <mxCell id="8Fj_e8VSMX3BYQ6a5OL4-74" value="TLS Record Layer" style="rounded=0;whiteSpace=wrap;html=1;fillColor=#e1d5e7;strokeColor=#9673a6;" vertex="1" parent="1">
          <mxGeometry x="114" y="707" width="540" height="60" as="geometry" />
        </mxCell>
        <mxCell id="8Fj_e8VSMX3BYQ6a5OL4-76" value="TLS 1.2" style="text;html=1;align=center;verticalAlign=middle;resizable=0;points=[];autosize=1;strokeColor=#A50040;fillColor=#d80073;fontColor=#ffffff;" vertex="1" parent="1">
          <mxGeometry x="1021.5" y="166" width="60" height="26" as="geometry" />
        </mxCell>
        <mxCell id="8Fj_e8VSMX3BYQ6a5OL4-79" value="" style="shape=umlLifeline;perimeter=lifelinePerimeter;whiteSpace=wrap;html=1;container=1;dropTarget=0;collapsible=0;recursiveResize=0;outlineConnect=0;portConstraint=eastwest;newEdgeStyle={&quot;curved&quot;:0,&quot;rounded&quot;:0};participant=umlEntity;" vertex="1" parent="1">
          <mxGeometry x="1779" y="241" width="40" height="400" as="geometry" />
        </mxCell>
        <mxCell id="8Fj_e8VSMX3BYQ6a5OL4-80" value="" style="shape=umlLifeline;perimeter=lifelinePerimeter;whiteSpace=wrap;html=1;container=1;dropTarget=0;collapsible=0;recursiveResize=0;outlineConnect=0;portConstraint=eastwest;newEdgeStyle={&quot;curved&quot;:0,&quot;rounded&quot;:0};participant=umlEntity;strokeColor=light-dark(#0050EF,#66B2FF);" vertex="1" parent="1">
          <mxGeometry x="2094" y="238" width="40" height="400" as="geometry" />
        </mxCell>
        <mxCell id="8Fj_e8VSMX3BYQ6a5OL4-81" value="客户端" style="text;html=1;align=center;verticalAlign=middle;resizable=0;points=[];autosize=1;strokeColor=none;fillColor=none;" vertex="1" parent="1">
          <mxGeometry x="1765" y="196" width="54" height="26" as="geometry" />
        </mxCell>
        <mxCell id="8Fj_e8VSMX3BYQ6a5OL4-82" value="服务器" style="text;html=1;align=center;verticalAlign=middle;resizable=0;points=[];autosize=1;strokeColor=none;fillColor=none;" vertex="1" parent="1">
          <mxGeometry x="2080" y="201" width="54" height="26" as="geometry" />
        </mxCell>
        <mxCell id="8Fj_e8VSMX3BYQ6a5OL4-83" value="" style="endArrow=classic;html=1;rounded=0;" edge="1" parent="1" target="8Fj_e8VSMX3BYQ6a5OL4-80">
          <mxGeometry width="50" height="50" relative="1" as="geometry">
            <mxPoint x="1800" y="319" as="sourcePoint" />
            <mxPoint x="1850" y="269" as="targetPoint" />
          </mxGeometry>
        </mxCell>
        <mxCell id="8Fj_e8VSMX3BYQ6a5OL4-84" value="Client Hello" style="text;html=1;align=center;verticalAlign=middle;resizable=0;points=[];autosize=1;strokeColor=none;fillColor=none;" vertex="1" parent="1">
          <mxGeometry x="1885" y="291" width="79" height="26" as="geometry" />
        </mxCell>
        <mxCell id="8Fj_e8VSMX3BYQ6a5OL4-87" value="" style="endArrow=classic;html=1;rounded=0;dashed=1;strokeColor=light-dark(#0050EF,#66B2FF);" edge="1" parent="1">
          <mxGeometry width="50" height="50" relative="1" as="geometry">
            <mxPoint x="2112" y="409.5" as="sourcePoint" />
            <mxPoint x="1797" y="409.5" as="targetPoint" />
            <Array as="points">
              <mxPoint x="1966" y="409.5" />
            </Array>
          </mxGeometry>
        </mxCell>
        <mxCell id="8Fj_e8VSMX3BYQ6a5OL4-88" value="Server Hello,&lt;div&gt;Change Cipher Spec,&lt;/div&gt;&lt;div&gt;Encrypted Hanshake Message&lt;/div&gt;" style="text;html=1;align=center;verticalAlign=middle;resizable=0;points=[];autosize=1;strokeColor=none;fillColor=none;" vertex="1" parent="1">
          <mxGeometry x="1858" y="347.5" width="181" height="55" as="geometry" />
        </mxCell>
        <mxCell id="8Fj_e8VSMX3BYQ6a5OL4-91" value="" style="endArrow=classic;html=1;rounded=0;" edge="1" parent="1">
          <mxGeometry width="50" height="50" relative="1" as="geometry">
            <mxPoint x="1796" y="493" as="sourcePoint" />
            <mxPoint x="2110" y="493" as="targetPoint" />
          </mxGeometry>
        </mxCell>
        <mxCell id="8Fj_e8VSMX3BYQ6a5OL4-92" value="Change Cipher Spc,&lt;div&gt;Encrypted Handshake Message,&lt;/div&gt;&lt;div&gt;Application Data&lt;/div&gt;" style="text;html=1;align=center;verticalAlign=middle;resizable=0;points=[];autosize=1;strokeColor=none;fillColor=none;" vertex="1" parent="1">
          <mxGeometry x="1853" y="435" width="191" height="55" as="geometry" />
        </mxCell>
        <mxCell id="8Fj_e8VSMX3BYQ6a5OL4-96" value="" style="endArrow=classic;html=1;rounded=0;dashed=1;strokeColor=light-dark(#0050EF,#66B2FF);" edge="1" parent="1">
          <mxGeometry width="50" height="50" relative="1" as="geometry">
            <mxPoint x="2114" y="556" as="sourcePoint" />
            <mxPoint x="1799" y="556" as="targetPoint" />
            <Array as="points">
              <mxPoint x="1968" y="556" />
            </Array>
          </mxGeometry>
        </mxCell>
        <mxCell id="8Fj_e8VSMX3BYQ6a5OL4-98" value="Application Data" style="text;html=1;align=center;verticalAlign=middle;resizable=0;points=[];autosize=1;strokeColor=none;fillColor=none;" vertex="1" parent="1">
          <mxGeometry x="1891" y="530" width="105" height="26" as="geometry" />
        </mxCell>
        <mxCell id="8Fj_e8VSMX3BYQ6a5OL4-101" value="TLS 1.3" style="text;html=1;align=center;verticalAlign=middle;resizable=0;points=[];autosize=1;strokeColor=#A50040;fillColor=#d80073;fontColor=#ffffff;" vertex="1" parent="1">
          <mxGeometry x="1894.5" y="170" width="60" height="26" as="geometry" />
        </mxCell>
      </root>
    </mxGraphModel>
  </diagram>
</mxfile>
